<svg xmlns="http://www.w3.org/2000/svg" xmlns:xlink="http://www.w3.org/1999/xlink" width="86" height="28" viewBox="0 0 86 28"><defs><path id="a" d="M502.12 355.84H492.1v2.95h7.11c-.35 4.13-3.82 5.89-7.1 5.89a7.78 7.78 0 0 1-7.85-7.84 7.8 7.8 0 0 1 7.86-7.89 7.76 7.76 0 0 1 5.36 2.13l2.08-2.13s-2.67-2.95-7.55-2.95A11.05 11.05 0 0 0 481 356.79c0 5.49 4.52 10.84 11.17 10.84 5.85 0 10.13-3.97 10.13-9.83a8.9 8.9 0 0 0-.18-1.96"/><path id="b" d="M510.06 354c3.38 0 7.05 2.37 7.05 6.98a6.85 6.85 0 0 1-7 6.92 6.92 6.92 0 0 1-7.11-7.01 6.9 6.9 0 0 1 7.06-6.89zm.04 2.73c-2.27 0-4.02 1.8-4.02 4.21 0 2.46 1.77 4.23 4.01 4.23a4.03 4.03 0 0 0 3.95-4.21c0-2.61-1.91-4.23-3.94-4.23z"/><path id="c" d="M526.06 354c3.38 0 7.05 2.37 7.05 6.98a6.85 6.85 0 0 1-7 6.92 6.92 6.92 0 0 1-7.11-7.01 6.9 6.9 0 0 1 7.06-6.89zm.04 2.73c-2.27 0-4.02 1.8-4.02 4.21 0 2.46 1.77 4.23 4.01 4.23a4.03 4.03 0 0 0 3.95-4.21c0-2.61-1.91-4.23-3.94-4.23z"/><path id="d" d="M540.74 354c1.65 0 2.89.63 3.79 1.6v-1.18h2.95v12.49c0 4.91-2.87 7.25-6.62 7.25-3.43 0-5.36-2.09-6.32-4.1l2.7-1.11a3.9 3.9 0 0 0 3.6 2.47c2.22 0 3.69-1.44 3.69-3.83v-1.37a4.65 4.65 0 0 1-3.85 1.68 6.89 6.89 0 0 1-6.68-6.95c0-3.68 2.97-6.95 6.74-6.95zm.28 2.72c-1.98 0-3.93 1.6-3.93 4.27 0 2.56 1.87 4.18 3.89 4.18 1.89 0 3.79-1.49 3.79-4.21 0-2.67-1.9-4.24-3.75-4.24z"/><path id="e" d="M560.55 354a6.35 6.35 0 0 1 5.84 4.07l.49 1.14-9.42 3.86c.57 1.04 1.47 2.11 3.45 2.11 1.76 0 2.81-.94 3.44-1.91l2.43 1.6a7.15 7.15 0 0 1-5.89 3.05 6.76 6.76 0 0 1-6.89-6.98c0-4.14 2.99-6.94 6.55-6.94zm.12 2.67c-2.03 0-3.96 2.08-3.69 4.09l6.29-2.6a2.8 2.8 0 0 0-2.6-1.49z"/><path id="f" d="M550 347h3.09v20.49H550z"/></defs><use fill="#4285f4" xlink:href="#a" transform="translate(-481 -346)"/><use fill="#ea4335" xlink:href="#b" transform="translate(-481 -346)"/><use fill="#fbbc05" xlink:href="#c" transform="translate(-481 -346)"/><use fill="#4285f4" xlink:href="#d" transform="translate(-481 -346)"/><use fill="#ea4335" xlink:href="#e" transform="translate(-481 -346)"/><use fill="#34a853" xlink:href="#f" transform="translate(-481 -346)"/></svg>