<svg xmlns="http://www.w3.org/2000/svg" xmlns:xlink="http://www.w3.org/1999/xlink" width="94" height="23" viewBox="0 0 94 23"><defs><path id="a" d="M322.51 366.28h-3.31l-4.2-12.95h3.21l2.69 8.91 2.65-8.91h3.23zm4.56-14.97v-3.13h3.09v3.13zm0 14.97v-12.95h3.09v12.95zm3.92 0v-2.38l6.99-7.79h-6.29v-2.78h10.38v2.41l-6.83 7.8h6.83v2.74zm11.27 0v-2.38l6.99-7.79h-6.29v-2.78h10.38v2.41l-6.83 7.8h6.83v2.74zm20.75 0v-1.32a5.89 5.89 0 0 1-4.2 1.63c-2.15 0-3.21-.93-3.73-1.7-.7-1.04-.75-2.23-.75-3.42v-8.14h3.14v7.46c0 1.25.31 2.88 2.53 2.88a2.8 2.8 0 0 0 2.52-1.45c.46-.91.49-2.13.49-3.11v-5.78h3.11v12.95zm16.09 0h-3.68l-.08-1.01a6.27 6.27 0 0 1-3.81 1.32c-2.95 0-4.71-1.78-4.71-3.96 0-2.82 2.15-3.93 4.61-4.37 1.94-.37 3.16-.68 3.99-.96 0-.99-.29-1.94-2.23-1.94-2.36 0-2.62 1.26-2.62 1.94l-3.15-.18c.05-.86.23-4.17 5.67-4.17 3.8 0 5.44 1.4 5.44 3.67v7.57c0 .98.05 1.27.57 2.09zm-3.68-4.71v-1.73c-.52.25-1.27.54-2.46.72-1.43.21-2.85.49-2.85 1.79 0 .85.57 1.58 2.12 1.58 1.43 0 3.19-.73 3.19-2.36zm4.77 4.71V348h3.16v18.28zm4.79-14.97v-3.13h3.09v3.13zm0 14.97v-12.95h3.09v12.95zm3.22-10.74v-2.21h1.89v-4.6h3.11v4.6h1.63l.78 2.21h-2.41v6.42c0 .49.02 1.06.31 1.37.36.39 1.03.39 1.16.39.44 0 .91-.05 1.3-.16v2.62c-.42.05-1.17.21-2.23.21-2.77 0-3.65-1.01-3.65-3.14v-7.71zm7.77-2.21h2.21l2.9 9.66 2.43-9.66h3.19l-3.45 11.81c-.47 1.64-1.11 3.94-2.2 4.82-.8.65-1.63.78-2.64.78-.99 0-1.35-.08-1.84-.18v-2.7c.31.06.6.06.85.06 1.71 0 2-1.04 2.1-1.38l-3.9-11h.35zm12.59 12.95h-3.41v-3.54h3.41z"/></defs><use fill="#64d1b8" xlink:href="#a" transform="translate(-315 -348)"/></svg>