<svg xmlns="http://www.w3.org/2000/svg" xmlns:xlink="http://www.w3.org/1999/xlink" width="45" height="44" viewBox="0 0 45 44"><defs><path id="a" d="M1170.63 373.67a15.5 15.5 0 0 0 15.58-15.37c0-8.49-7.29-15.31-15.58-15.3-8.57.01-15.63 6.81-15.63 15.3 0 8.49 7.06 15.37 15.63 15.37"/><path id="b" d="M1177.51 349.45c-2 .3-4.69.48-7.51.48.04-3.06.09-5.26.15-5.93 2.85.48 5.45 2.52 7.36 5.45"/><path id="c" d="M1180.88 360.09c-2.91.44-6.8.69-10.88.69 0-4.16.02-8.18.05-11.3 2.82 0 5.51-.18 7.51-.48a21.5 21.5 0 0 1 3.32 11.09"/><path id="d" d="M1180.57 360.07c-.81-.13-1.49-1.46-1.13-2.84-1.14.78-2.41-.82-2.23-2.3.1-.78.62-1.48 1.52-1.15a22.1 22.1 0 0 0-1.36-3.53c-.8.1-1.68.19-2.62.25.83 1.24.02 2.4-1.14 2.21-.84-.13-1.62-1-1.4-2.04-.68.47-2.08.29-2.21-1.2 2.57-.01 4.83-.1 7.51-.47 2.17 3.54 3.1 6.64 3.32 11.07h-.26"/><path id="e" d="M1162.36 370.29c-1.6-.26-2.67-.6-3.03-.97-.39-.44-.91-1.04-1.28-1.5-.89-1.29-.9-1.32-1.3-2.06-.68-1.43-.69-1.45-.96-2.25-.45-1.54-.46-1.57-.59-2.41-.09-.73-.17-1.7-.2-2.43l.01-.67c-.02.65 1.57 1.27 4.32 1.73l-.01.65c0 4.01 1.16 7.48 3.04 9.91"/><path id="f" d="M1170.23 373.81h-.24l-.43-.02c-.94-.05-1.55-.14-2.36-.28a9.19 9.19 0 0 1-5.2-3.51c1.37.23 3.14.4 5.19.49.97.04 1.94.06 2.9.06.04 2.06.09 3.26.14 3.26"/><path id="g" d="M1170.1 370.96c-.96 0-1.94-.02-2.91-.06a44.21 44.21 0 0 1-5.18-.49c-1.86-2.43-3-5.89-3.01-9.89l.01-.52c1.86.31 4.26.54 7.06.66 1.32.06 2.64.09 3.95.09v.52c.01 4 .04 7.39.08 9.69"/><path id="h" d="M1170.07 370.76c-.13.54-.89 1.04-1.95.61.49.66.06 1.22-.81 1.06-.69-.12-1.5-.67-1.56-1.21-.84-.06-1.61-.14-2.3-.24a8.76 8.76 0 0 0 2.16 1.82c.1-.04.24-.03.71.13.59.21 1.15.51 1.74.72l-.86-.14a9.2 9.2 0 0 1-5.2-3.51c2.41.37 4.75.53 8.09.55 0 .06 0 .15-.02.21"/><path id="i" d="M1162.01 370.39c-2.14-3.04-2.99-5.95-3.01-10.39 1.21.4 1.55 2.15 1.23 3.14 1.16-.44 2.61 1.53 2.1 2.85-.23.61-.84.78-1.48.41a15.2 15.2 0 0 0 1.32 3.14c.82.11 1.74.21 2.74.28-.81-.98-.16-1.78.91-1.73.92.05 2.14.81 1.88 1.85.83-.38 2.24-.07 2.41 1.01-1.01-.01-2.54-.02-4.5-.16-1.2-.08-2.39-.3-3.6-.4"/><path id="k" d="M1161.98 370.39c-1.78-.32-2.54-.56-3.04-.98a29.99 29.99 0 0 1-.91-1.04c-.16-.21-.97-1.23-1.03-1.69.44-.07 1.86 2.13 1.88 2.15.43.16.99.31 1.67.45a14.4 14.4 0 0 1-1.59-3.19c-.96.49-2.2-2.04-1.81-3.11.08-.22.34-.68 1-.18-.5-1.13-.37-2.8.82-2.8.03 3.74.55 6.93 3.01 10.39"/><path id="l" d="M1181.02 362.66l-.02-.02c.07-.69.1-1.4.1-2.13l-.01-.51h.03v.51c.01.74-.03 1.46-.1 2.15"/><path id="m" d="M1173.01 374.33h-.01c4.28-.66 7.57-5.15 8.18-11.33l.02.03c-.62 6.16-3.92 10.64-8.19 11.3"/><path id="n" d="M1177.52 372.12c-1.06.53-1.28.65-2.41 1.07l-1.11.34a11.57 11.57 0 0 0 5.63-3.53c-.32.71-.54 1.12-1.68 1.87l-.43.25"/><path id="o" d="M1178 372.08c.94-.64 1.33-1.02 1.68-1.87a15 15 0 0 0 3.6-10.1l-.01-.51a7.4 7.4 0 0 0 1.68-.6v.51a14.46 14.46 0 0 1-6.95 12.57"/><path id="p" d="M1173.53 368.37c-1.03-1.03-1.03-1.03-3.52-3.36l-.01-3.42v-.51c1.35 0 2.68-.03 3.96-.08v.51c0 2.58-.15 4.91-.43 6.86"/><path id="q" d="M1170.86 374.51h-.1l-.4.01h-.16c-.09 0-.17-3.81-.2-9.52 2.33 2.18 2.57 2.41 3.52 3.36-.53 3.75-1.5 6.1-2.66 6.15"/><path id="r" d="M1171.74 374.09l-.42.03-.32.02c1.16-.05 2.13-2.4 2.66-6.14a14.41 14.41 0 0 1 2.16 2.62c-1.06 2.06-2.48 3.33-4.08 3.47"/><path id="s" d="M1176.16 370.23c-.53-.83-.86-1.28-2.16-2.62.28-1.95.43-4.28.43-6.87l-.01-.51c1.28-.05 2.51-.13 3.67-.23v.51c.01 3.97-.72 7.36-1.93 9.72"/><path id="t" d="M1176.31 372.24c.19-.61.18-.97-.31-1.9 1.2-2.35 1.93-5.74 1.92-9.71v-.51c.43-.03.85-.08 1.26-.12.57.67 1.28 1.5 1.91 2.38-.44 4.4-2.24 7.95-4.78 9.86"/><path id="u" d="M1173 374.36l-.39.06-.55.06h-.06c1.61-.14 3.03-1.41 4.09-3.48.42.83.55 1.21.31 1.9a7.62 7.62 0 0 1-3.4 1.46"/><path id="v" d="M1174.64 374.07l-.37.09-.97.2-.3.05c3.03-.47 5.57-2.86 7.01-6.41.4 1.05.53 1.54.26 2.54a11.52 11.52 0 0 1-5.63 3.53"/><path id="w" d="M1174.27 373.2l-.97.2-.3.05a7.68 7.68 0 0 0 3.39-1.45c-.36.53-.6.76-1.75 1.11l-.37.09"/><path id="x" d="M1180.26 369.61c.21-.88.2-1.37-.26-2.55a18.76 18.76 0 0 0 1.28-7.04l-.01-.51a25.6 25.6 0 0 0 2.58-.51v.51a15.06 15.06 0 0 1-3.59 10.1"/><path id="y" d="M1178 372.24l.41-.24-.15.09-.26.15"/><path id="z" d="M1185.2 359.51a14.5 14.5 0 0 1-7.19 12.71h-.01l.16-.09a14.5 14.5 0 0 0 6.97-12.58l-.01-.51.07-.04.01.51"/><path id="A" d="M1180.18 367.55a14.1 14.1 0 0 0-2.18-3.23c.13-1.08.19-2.23.19-3.43l-.01-.51c1.18-.1 2.28-.23 3.27-.38v.51c.01 2.63-.46 5.02-1.27 7.04"/><path id="B" d="M1177.48 363.96c-.9-1.02-1.35-1.53-3.48-3.72 1.2-.06 2.15-.11 3.66-.24l.01.52c0 1.2-.07 2.36-.19 3.44"/><path id="C" d="M1159.02 359.68l-.02-.01c.02-.9.1-1.79.23-2.67l.02.04c-.13.86-.21 1.74-.23 2.64"/><path id="D" d="M1159.02 357.4l-.02-.03c.95-6.34 4.68-11.72 9.36-13.37l-.02.01c-4.66 1.66-8.38 7.05-9.32 13.39"/><path id="E" d="M1169 343.43l.02-.01a9.39 9.39 0 0 1-.02.01"/><path id="F" d="M1161 347.95a6.5 6.5 0 0 1 2.09-2.78 15.36 15.36 0 0 1 7.23-2.17c-3.6.32-6.88 2.18-9.32 4.95"/><path id="G" d="M1156.45 359.78a6.17 6.17 0 0 1-1.45-.58 16.02 16.02 0 0 1 7.83-13.2 6.6 6.6 0 0 0-2.09 2.78 17.45 17.45 0 0 0-4.29 11"/><path id="H" d="M1170.08 360.91c-1.31-.01-2.64-.03-3.96-.09l-.12-.01c.02-2.74.25-5.42.62-7.81a47.2 47.2 0 0 0 3.46 3.88v4.03"/><path id="I" d="M1166.94 352.3a11.45 11.45 0 0 1-1.94-3.55c1.45-3.03 3.42-5.17 5.59-5.75-1.55.86-2.9 4.52-3.65 9.3"/><path id="J" d="M1165.77 360.37a74.49 74.49 0 0 1-3.77-.25c.06-4.13.99-8.07 2.45-11.12a11.3 11.3 0 0 0 1.94 3.55 54.6 54.6 0 0 0-.62 7.82"/><path id="K" d="M1161.95 360.09l-1.25-.13a23.69 23.69 0 0 1-1.7-2.91c.67-4.49 2.72-8.5 5.52-11.05a4.3 4.3 0 0 0-.12 2.99 27.36 27.36 0 0 0-2.45 11.1"/><path id="L" d="M1165.2 348.76c-.28-1.25-.3-1.89.13-2.99a10.64 10.64 0 0 1 5.47-2.77c-2.17.58-4.15 2.73-5.6 5.76"/><path id="M" d="M1161.15 351.62a6.7 6.7 0 0 1 .22-3.67 14.22 14.22 0 0 1 9.32-4.95 6 6 0 0 0-1.65.42c-3.33 1.17-6.18 4.24-7.89 8.2"/><path id="N" d="M1165 345.75c.52-.89.87-1.33 2.18-2.01 1.05-.39 2.15-.64 3.29-.74a10.69 10.69 0 0 0-5.47 2.75"/><path id="O" d="M1159.37 359.51c-.93-.15-1.72-.33-2.37-.51.12-4.2 1.74-8.1 4.3-11a6.75 6.75 0 0 0-.23 3.67 21.27 21.27 0 0 0-1.7 7.84"/><path id="P" d="M1163 345.16a9.89 9.89 0 0 1 3.55-1.74c1.18-.27 2.4-.42 3.67-.42-2.62.11-5.08.89-7.22 2.16"/><path id="Q" d="M1155.49 358.94c-.33-.2-.5-.41-.49-.63l.03-.53a15.3 15.3 0 0 1 11.86-13.78c-1.47.46-2.29.8-3.55 1.73a16 16 0 0 0-7.85 13.21"/><path id="R" d="M1162.18 360.24a48.16 48.16 0 0 1-3.18-.4c.06-2.79.68-5.47 1.69-7.84.4 1.55.72 2.38 1.82 4.22-.2 1.3-.31 2.65-.33 4.02"/><path id="S" d="M1162 360.04c.02-1.38.14-2.73.34-4.04.95 1.4 1.54 2.23 3.43 4.29-1.3-.07-2.24-.12-3.77-.25"/><path id="T" d="M1167 343.74c.87-.35 1.61-.65 3.29-.74-1.14.1-2.24.35-3.29.74"/><path id="U" d="M1185.77 359c-.02.83-.04 2.08-.49 3.86a15.36 15.36 0 0 1-1.34 3.43c-.81 1.38-2.3 3.96-5.94 6.09"/><path id="V" d="M1185.2 358.68c.4-.22.58-.45.58-.68a15.45 15.45 0 0 1-7.76 13.9l-.02.01.16-.1c4.2-2.5 6.98-7.14 6.97-12.58l-.01-.51a.3.3 0 0 0 .08-.04l.01.51"/><path id="W" d="M1178.02 349.24h.02l.43-.08c.88-.16 2.82-.58 2.82-1.16a7.95 7.95 0 0 0 1.61 2.2c.05.12.09.24.11.34l.01.02v.18c-.04.33-.24.34-.46.24l-.08-.03c-.79-.35-1.05-1.08-1.21-1.38-.4.13-1.07.42-1.63.52l-.25.06a20.18 20.18 0 0 1 1.73 3.59c.78-.8 2 .68 2.06 2.1.04.84-.34 1.58-1.11 1.32.61 1.13.42 2.79-.76 3.16a21.43 21.43 0 0 0-3.31-11.07"/><path id="X" d="M1177.95 346.53h-.01.01l-.01-.04a.22.22 0 0 0 .04-.05h.05v-.01s.11-.47 1.89.75c-3.03-2.34-6.1-3-7.92-3.18.19.06.34.11.45.17.09.04.16.09.21.13h.01c.22.02.42.06.6.1l.19.07.03.01.17.07.04.02.16.06.05.02.2.1c.55.26.99.56 1 .79-.09.05-.11.06-.35 0 .92.65 2.23 1.87 3.01 2.77.53-.1 1.33-.22 1.7-.34-.03.03-1.36-.96-1.52-1.44"/><path id="Y" d="M1180.73 347.23c-.39-.36-.77-.68-1.16-.98a5.86 5.86 0 0 0-1.44-.79v-.01s-.89-.28-.39.39h.01a6.43 6.43 0 0 0 1.37 1.2c-.37.12-1.16.23-1.7.33-.78-.9-2.09-2.12-3.01-2.77.24.07.27.05.35 0-.01-.22-.45-.52-1-.79a3.9 3.9 0 0 0-.2-.09l-.05-.02-.16-.07-.04-.02a3.25 3.25 0 0 1-.17-.06l-.03-.01-.19-.07a4.61 4.61 0 0 0-.6-.11h-.01l.03.03-.06-.02.03-.01a1.6 1.6 0 0 0-.66-.29 9.55 9.55 0 0 0-1.5-.06l-.1.01.07.02-.12-.02.29.05c.24.08.75.22 1.13.31 2.33.82 4.42 2.64 6.04 5.08l.08-.01c1.44-.24 2.24-.51 2.81-.77h.01c.41-.23.36-.45.36-.45h.01"/><path id="Z" d="M1177.51 348.44c-2.52-3.7-4.85-4.8-6.97-5.34l.17.05-.29-.08a.19.19 0 0 1-.07-.02l.19.05-.22-.06-.06-.02.02.01-.15-.03c.45.5 1.09.71 1.24.75-.04.19-.01.56.64 1.03.1.07.2.13.3.17 1 .52 1.23.12 1.27-.05l.02-.01c.31.23.91.7 1.57 1.45.38.45.74.85 1.01 1.24-.62.08-1.45.15-2.26.21a1.81 1.81 0 0 0-1.21-1.63c-.98-.37-1.31.78-.88 1.59-.78-.42-1.7-.05-1.83 1.17 3.07-.02 5.18-.16 7.51-.48"/><path id="aa" d="M1170.46 356.19a48.03 48.03 0 0 1-3.46-3.88c.75-4.78 2.1-8.44 3.65-9.31-.1 1.12-.17 6.63-.19 13.19"/><path id="ab" d="M1151.77 347l.09.04c-.15.32-.08.49.22.64l1.26.62c.58.28 1.02.96.52 1.96-.45.89-1.18 1.09-1.85.76l-1.37-.67c-.3-.15-.39-.09-.55.23l-.09-.05.6-1.19.09.05-.03.04c-.12.25-.11.4.16.53l1.3.64c.64.31 1.2.13 1.55-.56.26-.52.3-1.16-.49-1.56l-1.09-.53c-.45-.22-.57-.19-.78.18l-.09-.04.55-1.09"/><path id="ac" d="M1156.69 345.56l-3.91.24 1.72 1.43c.28.25.4.23.68-.1l.08.06-.78.92-.08-.07.02-.01c.21-.25.19-.4.01-.55l-1.97-1.64a.74.74 0 0 0-.38.25l-.08-.07.53-.62 3.55-.22-1.59-1.33c-.25-.2-.35-.17-.63.14l-.08-.06.79-.93.08.06c-.25.3-.26.41-.1.54l2.23 1.86-.09.1"/><path id="ad" d="M1159.05 344.48l-.97.8-.07-.07c.24-.22.24-.33.02-.6l-1.42-1.69c-.18-.22-.31-.21-.55-.04l-.06-.08.98-.8.06.08c-.25.2-.29.33-.07.6l1.41 1.69c.2.23.33.26.61.03l.06.08"/><path id="ae" d="M1161.11 342.79l-2.41-1.85c-.28-.22-.37-.25-.65-.09l-.05-.09 1.24-.72.05.09c-.41.25-.45.4-.25.56l2 1.53-.38-2.26a.77.77 0 0 0-.09-.32c-.08-.14-.22-.13-.53.05l-.05-.08 1.05-.61.05.09c-.24.13-.29.31-.24.65l.48 2.92-.22.13"/><path id="af" d="M1164.86 340.01l-.1.03c-.16-.33-.27-.34-.47-.27l-.83.28.36 1.05c.08.22.18.24.36.17l.76-.26c.35-.11.4-.28.38-.74l.09-.03.17.75-2.62.9-.03-.1.14-.04c.39-.14.42-.27.32-.56l-.72-2.07c-.09-.27-.2-.37-.53-.25l-.11.03-.03-.09 2.37-.81.28.67-.09.03c-.21-.4-.36-.44-.54-.38l-1.04.35.41 1.21.89-.3c.18-.06.23-.18.16-.47l.09-.03.33.93"/><path id="ag" d="M1167.2 337.13c.8-.09 1.06.25 1.12.73.07.62-.28.9-.85.97-.12.02-.2.03-.33.03l-.2-1.69.26-.04zm.22 1.81l.35-.06c.14.07.34.2.59.4l.39.3c.51.4.77.57 1.67.42l-.01-.09c-.4.02-.74-.13-1.08-.4l-.46-.36a5.42 5.42 0 0 0-.66-.46c.41-.18.64-.53.59-.92-.06-.52-.54-.86-1.5-.75l-.65.09c-.21.04-.53.1-.65.11l.01.1.12-.01c.3-.04.4.04.43.36l.26 2.17c.05.34-.05.44-.36.47l-.09.01.01.1 1.47-.17-.01-.1-.12.01c-.29.04-.42-.03-.46-.33l-.1-.87.26-.02z"/><path id="ah" d="M1171.1 339.44a.9.9 0 0 0 .82.8c.35.02.74-.15.77-.56.06-.74-1.6-1.1-1.53-2 .04-.43.46-.72.99-.68.44.04.52.17.7.19.04 0 .06-.01.1-.05l.08.01.04.66h-.09a.92.92 0 0 0-.79-.68c-.35-.03-.6.15-.62.44-.06.73 1.6 1.06 1.52 2.01-.04.51-.52.85-1.13.8-.29-.02-.64-.19-.71-.2-.05 0-.09.02-.11.05h-.09l-.05-.8.1.01"/><path id="ai" d="M1175.24 340.41l-1.24-.26.02-.1c.32.05.41-.01.48-.35l.47-2.16c.06-.27-.02-.37-.3-.44l.02-.1 1.24.27-.02.09c-.32-.07-.45-.02-.52.32l-.47 2.14c-.07.3-.01.42.34.5l-.02.09"/><path id="aj" d="M1178.14 341.26c-.1.26-.05.38.25.5l.18.07-.04.09-1.53-.6.04-.09.18.07c.29.11.42.06.52-.2l.95-2.38-.84-.33c-.2-.08-.33 0-.57.39l-.09-.03.39-.75.09.04c0 .03.01.05.03.08l.09.05 2.34.92c.07.02.15.04.18-.02l.09.04-.23.81-.09-.04c.1-.45.05-.59-.14-.67l-.84-.33-.96 2.38"/><path id="ak" d="M1182.84 341.87c.3-.14.26-.27-.02-.46l.06-.08.98.65-.05.08c-.31-.17-.52-.14-.78-.02l-1.53.74-.44.64c-.15.23-.13.37.13.55l.06.04-.06.08-1.19-.79.06-.08.08.05c.27.18.41.13.55-.08l.41-.61.04-1.7c.01-.48-.05-.6-.33-.8l.06-.08 1.15.77-.05.08c-.34-.23-.42-.16-.42.12l-.02 1.53 1.31-.63"/><path id="al" d="M1185.62 347.84c-.51-.66-.37-1.6.41-2.18.5-.38 1.4-.61 1.96.12.52.68.35 1.57-.42 2.16-.59.44-1.44.58-1.95-.1zm2.56-2.03c-.68-.88-1.75-1.07-2.58-.44-.77.58-.77 1.66-.15 2.47a1.81 1.81 0 0 0 2.56.38c.74-.56.77-1.64.17-2.41z"/><path id="am" d="M1189.09 350.87l-.04-.08c.27-.14.31-.28.2-.5l-.41-.87-1.04.49c-.26.13-.33.23-.16.58l-.09.04-.55-1.13.09-.05c.16.28.24.31.63.13l1.85-.88c.3-.14.42-.23.27-.56l.09-.04 1.01 2.09-.56.27-.04-.08c.27-.14.34-.28.2-.57l-.43-.89-1.1.52.44.93c.09.17.22.21.43.13l.04.07-.83.4"/><path id="an" d="M1152.62 371.34l1.88-3.43-.01-.01-2.54 1.6c-.29.18-.2.43-.03.68l-.1.07-.82-1.11.1-.07c.29.39.41.37.92.05l2.2-1.39c.37-.23.46-.31.24-.66l.1-.07.59.81-1.78 3.25 3.66-.68.58.79-.1.07c-.21-.25-.29-.34-.47-.2l-2.32 1.93c-.47.39-.44.43-.15.82l-.11.08-1.01-1.38.11-.07c.18.25.43.44.7.22l2.31-1.9-.01-.01-3.85.74-.09-.13"/><path id="ao" d="M1157.5 374.49l1.38-.91-.45 1.58zm.49 2.21c-.02.07-.04.17-.11.26-.11.15-.24.1-.55-.13l-.14-.1-.08.1 1.48 1.08.08-.1c-.27-.2-.34-.33-.24-.69l1.07-3.78-.47-.34-.04.15-2.94 1.94c-.52.34-.62.35-.97.1l-.08.1 1.24.91.08-.1-.09-.07c-.29-.21-.39-.37-.29-.51.06-.07.25-.18.36-.26l.93-.61 1.12.81z"/><path id="ap" d="M1163.81 375.57c.97.34 1.08.88.87 1.46-.27.75-.83.88-1.53.64-.15-.05-.24-.08-.39-.15l.73-2.05.32.1zm-.77 2.19l.43.14c.11.15.27.41.45.78l.27.56c.36.75.56 1.09 1.68 1.42l.04-.11a2 2 0 0 1-1.02-1.06l-.32-.67c-.19-.4-.32-.64-.49-.9.57.03 1.04-.25 1.2-.72.23-.63-.12-1.29-1.29-1.7l-.8-.26-.8-.24-.04.12.13.05c.37.13.44.28.3.66l-.94 2.63c-.15.41-.32.47-.69.34l-.11-.04-.04.12 1.78.62.04-.12-.14-.05c-.35-.12-.47-.27-.34-.64l.38-1.05.32.12z"/><path id="aq" d="M1169.38 376.89c.24-.35.13-.47-.3-.5l.01-.13 1.5.13-.01.12c-.45 0-.66.16-.87.45l-1.27 1.76-.08.99c-.03.35.08.5.49.53l.09.01-.01.12-1.83-.15.01-.12.12.01c.41.03.55-.11.58-.43l.08-.93-1.03-1.93c-.28-.54-.43-.65-.86-.69l.01-.13 1.77.15-.01.12c-.52-.04-.56.08-.39.4l.92 1.72 1.08-1.5"/><path id="ar" d="M1175.61 379.89l-2.94.5-.02-.13.22-.04c.3-.05.4-.16.34-.5l-.49-2.88c-.06-.35-.19-.48-.61-.41l-.09.02-.02-.13 1.94-.32.02.12-.24.04c-.43.08-.53.14-.46.55l.51 3c.03.18.11.23.3.2l.97-.16c.39-.07.48-.24.8-.87l.12-.02-.35 1.03"/><path id="as" d="M1177.64 377.29l-.08-1.64 1.14 1.2zm2.16.72c.05.05.13.13.17.23.08.17-.04.26-.39.4l-.16.07.05.11 1.69-.7-.04-.11c-.31.12-.47.12-.73-.16l-2.71-2.85-.54.22.11.11.16 3.5c.03.61-.01.71-.41.88l.05.12 1.42-.59-.05-.12-.1.04c-.33.14-.52.15-.59-.02-.04-.08-.03-.3-.04-.43l-.05-1.11 1.28-.53z"/><path id="at" d="M1186.01 374.7l-4.98-.58 1.83 2.19c.31.36.45.37.89.01l.08.1-1.19.98-.09-.1.03-.02c.31-.26.33-.45.13-.68l-2.09-2.51a.91.91 0 0 0-.54.23l-.08-.1.81-.66 4.51.52-1.69-2.03c-.26-.31-.4-.29-.82.03l-.08-.09 1.2-.99.08.1c-.38.31-.41.45-.24.65l2.37 2.84-.13.11"/><path id="au" d="M1184.99 368.71c.51-.78.97-1.05 1.39-1.14.55-.11 1.08.06 1.5.33.57.37.84.9.91 1.24.12.56.02.94-.46 1.69-.29.43-.38.4-.61.25l-2.99-1.91.26-.46zm2.45 3.47l-.06.1.11.06 1.16-1.77c.92-1.41.32-2.71-.52-3.25-.93-.59-2.1-.42-3.06 1.04a26.33 26.33 0 0 0-1.07 1.75l.11.07.07-.11c.21-.33.36-.37.73-.13l2.41 1.54c.33.21.32.4.12.7z"/><path id="av" d="M1148.98 357v2.83c0 .15.03.19.19.19h.27v.09h-1.24v-.09h.27c.16 0 .19-.04.19-.19v-2.44c-.16.14-.44.32-.62.4l-.04-.07c.29-.19.7-.55.81-.72h.17"/><path id="aw" d="M1151.62 359.42c0-.33-.23-.54-.81-.79-.33.18-.5.42-.5.74 0 .41.28.72.65.72s.66-.29.66-.67zm.21-1.72c0 .32-.21.54-.64.72.52.23.74.48.74.86 0 .51-.42.9-.97.9-.54 0-.96-.36-.96-.8 0-.34.24-.61.72-.8-.46-.21-.67-.46-.67-.79 0-.43.4-.79.89-.79.5 0 .89.31.89.7zm-.3 0c0-.35-.25-.61-.59-.61-.34 0-.6.24-.6.55 0 .27.14.46.78.73.28-.17.41-.39.41-.67z"/><path id="ax" d="M1188.27 358.06h1.17c.09 0 .12-.02.14-.06h.1l-.06.38h-1.25l-.03.87c.15-.08.33-.12.53-.12.55 0 1.01.46 1.01 1.01 0 .59-.5 1.04-1.16 1.04-.39 0-.72-.14-.72-.31 0-.08.07-.15.16-.15.27 0 .36.34.67.34.37 0 .68-.37.68-.82 0-.45-.31-.78-.74-.78a.85.85 0 0 0-.52.19l-.05-.03.07-1.56"/><path id="ay" d="M1192.04 361.1c-.31 0-.67-.27-.67-1.09 0-.17.01-.24.02-.31.31-.24.53-.29.66-.29.33 0 .57.3.57.83 0 .55-.23.86-.58.86zm-1.04-1.19c0 .75.42 1.27 1.03 1.27.53 0 .96-.45.96-.99 0-.49-.39-.9-.87-.9-.24 0-.43.08-.7.29.11-.72.52-1.2 1.29-1.51l-.06-.07c-1.03.29-1.65 1.01-1.65 1.91z"/></defs><use fill="#fffffe" xlink:href="#a" transform="translate(-1148 -337)"/><use fill="#fffffe" xlink:href="#b" transform="translate(-1148 -337)"/><use fill="#bd252c" xlink:href="#c" transform="translate(-1148 -337)"/><use fill="#fffffe" xlink:href="#d" transform="translate(-1148 -337)"/><use fill="#fffffe" xlink:href="#e" transform="translate(-1148 -337)"/><use fill="#fffffe" xlink:href="#f" transform="translate(-1148 -337)"/><use fill="#bd252c" xlink:href="#g" transform="translate(-1148 -337)"/><use fill="#bd252c" xlink:href="#h" transform="translate(-1148 -337)"/><use fill="#fffffe" xlink:href="#i" transform="translate(-1148 -337)"/><use fill="#bd252c" xlink:href="#j" transform="translate(-1148 -337)"/><use fill="#bd252c" xlink:href="#j" transform="translate(-1148 -337)"/><use fill="#bd252c" xlink:href="#k" transform="translate(-1148 -337)"/><use xlink:href="#l" transform="translate(-1148 -337)"/><use xlink:href="#m" transform="translate(-1148 -337)"/><use fill="#1a1919" xlink:href="#n" transform="translate(-1148 -337)"/><use fill="#ecc336" xlink:href="#o" transform="translate(-1148 -337)"/><use fill="#1a1919" xlink:href="#p" transform="translate(-1148 -337)"/><use fill="#ecc336" xlink:href="#q" transform="translate(-1148 -337)"/><use fill="#1a1919" xlink:href="#r" transform="translate(-1148 -337)"/><use fill="#ecc336" xlink:href="#s" transform="translate(-1148 -337)"/><use fill="#1a1919" xlink:href="#t" transform="translate(-1148 -337)"/><use fill="#ecc336" xlink:href="#u" transform="translate(-1148 -337)"/><use fill="#ecc336" xlink:href="#v" transform="translate(-1148 -337)"/><use fill="#1a1919" xlink:href="#w" transform="translate(-1148 -337)"/><use fill="#1a1919" xlink:href="#x" transform="translate(-1148 -337)"/><use fill="#ecc336" xlink:href="#y" transform="translate(-1148 -337)"/><use fill="#1a1919" xlink:href="#z" transform="translate(-1148 -337)"/><use fill="#ecc336" xlink:href="#A" transform="translate(-1148 -337)"/><use fill="#1a1919" xlink:href="#B" transform="translate(-1148 -337)"/><use fill="#1a1919" xlink:href="#C" transform="translate(-1148 -337)"/><use fill="#1a1919" xlink:href="#D" transform="translate(-1148 -337)"/><use fill="#1a1919" xlink:href="#E" transform="translate(-1148 -337)"/><use fill="#ecc336" xlink:href="#F" transform="translate(-1148 -337)"/><use fill="#1a1919" xlink:href="#G" transform="translate(-1148 -337)"/><use fill="#ecc336" xlink:href="#H" transform="translate(-1148 -337)"/><use fill="#ecc336" xlink:href="#I" transform="translate(-1148 -337)"/><use fill="#1a1919" xlink:href="#J" transform="translate(-1148 -337)"/><use fill="#ecc336" xlink:href="#K" transform="translate(-1148 -337)"/><use fill="#1a1919" xlink:href="#L" transform="translate(-1148 -337)"/><use fill="#1a1919" xlink:href="#M" transform="translate(-1148 -337)"/><use fill="#ecc336" xlink:href="#N" transform="translate(-1148 -337)"/><use fill="#ecc336" xlink:href="#O" transform="translate(-1148 -337)"/><use fill="#1a1919" xlink:href="#P" transform="translate(-1148 -337)"/><use fill="#ecc336" xlink:href="#Q" transform="translate(-1148 -337)"/><use fill="#1a1919" xlink:href="#R" transform="translate(-1148 -337)"/><use fill="#ecc336" xlink:href="#S" transform="translate(-1148 -337)"/><use fill="#1a1919" xlink:href="#T" transform="translate(-1148 -337)"/><use fill="#fff" fill-opacity="0" stroke-linecap="round" stroke-linejoin="round" stroke-miterlimit="50" stroke-width="0" xlink:href="#U" transform="translate(-1148 -337)"/><use fill="#1a1919" xlink:href="#V" transform="translate(-1148 -337)"/><use fill="#fff" fill-opacity="0" stroke-linecap="round" stroke-linejoin="round" stroke-miterlimit="50" stroke-width="0" xlink:href="#V" transform="translate(-1148 -337)"/><use fill="#bd252c" xlink:href="#W" transform="translate(-1148 -337)"/><use fill="#bd252c" xlink:href="#X" transform="translate(-1148 -337)"/><use fill="#fffffe" xlink:href="#Y" transform="translate(-1148 -337)"/><use fill="#bd252c" xlink:href="#Z" transform="translate(-1148 -337)"/><use fill="#1a1919" xlink:href="#aa" transform="translate(-1148 -337)"/><use fill="#1a1919" xlink:href="#ab" transform="translate(-1148 -337)"/><use fill="#1a1919" xlink:href="#ac" transform="translate(-1148 -337)"/><use fill="#1a1919" xlink:href="#ad" transform="translate(-1148 -337)"/><use fill="#1a1919" xlink:href="#ae" transform="translate(-1148 -337)"/><use fill="#1a1919" xlink:href="#af" transform="translate(-1148 -337)"/><use fill="#1a1919" xlink:href="#ag" transform="translate(-1148 -337)"/><use fill="#1a1919" xlink:href="#ah" transform="translate(-1148 -337)"/><use fill="#1a1919" xlink:href="#ai" transform="translate(-1148 -337)"/><use fill="#1a1919" xlink:href="#aj" transform="translate(-1148 -337)"/><use fill="#1a1919" xlink:href="#ak" transform="translate(-1148 -337)"/><use fill="#1a1919" xlink:href="#al" transform="translate(-1148 -337)"/><use fill="#1a1919" xlink:href="#am" transform="translate(-1148 -337)"/><use fill="#1a1919" xlink:href="#an" transform="translate(-1148 -337)"/><use fill="#1a1919" xlink:href="#ao" transform="translate(-1148 -337)"/><use fill="#1a1919" xlink:href="#ap" transform="translate(-1148 -337)"/><use fill="#1a1919" xlink:href="#aq" transform="translate(-1148 -337)"/><use fill="#1a1919" xlink:href="#ar" transform="translate(-1148 -337)"/><use fill="#1a1919" xlink:href="#as" transform="translate(-1148 -337)"/><use fill="#1a1919" xlink:href="#at" transform="translate(-1148 -337)"/><use fill="#1a1919" xlink:href="#au" transform="translate(-1148 -337)"/><use fill="#1a1919" xlink:href="#av" transform="translate(-1148 -337)"/><use fill="#1a1919" xlink:href="#aw" transform="translate(-1148 -337)"/><use fill="#1a1919" xlink:href="#ax" transform="translate(-1148 -337)"/><use fill="#1a1919" xlink:href="#ay" transform="translate(-1148 -337)"/></svg>