<svg xmlns="http://www.w3.org/2000/svg" xmlns:xlink="http://www.w3.org/1999/xlink" width="157" height="26" viewBox="0 0 157 26"><defs><path id="a" d="M261.06 63.33c-.37.52-.92.86-1.63 1l2.58 4.43h-2.69l-2.12-4.27h-.96v4.27H254V58.24h3.79c.52 0 1.01.06 1.47.17.46.1.87.29 1.22.53.35.24.63.57.83.97.21.41.31.92.31 1.54a3.1 3.1 0 0 1-.56 1.88zm-1.94-1.23c.12-.16.18-.38.18-.67 0-.27-.06-.48-.16-.64a1.15 1.15 0 0 0-.4-.36 1.93 1.93 0 0 0-.56-.17 4.44 4.44 0 0 0-.62-.05h-1.32v2.3h1.17c.21 0 .42.04.64.02.23-.01.43-.01.61-.09.19-.07.34-.19.46-.34zm6.06 2.39v1.97h4.79v2.3h-7.02V58.24h6.7v2.3h-4.47v1.64h4.47v2.31zm11.62-1.27c.35.22.64.51.87.87.23.37.34.85.34 1.47a3.14 3.14 0 0 1-1.17 2.6c-.36.28-.77.5-1.25.63a5.27 5.27 0 0 1-3.34-.1 4.6 4.6 0 0 1-1.58-1.01l1.6-1.8a2.42 2.42 0 0 0 2.5.92c.19-.04.36-.11.51-.2.14-.08.26-.2.35-.34.1-.13.14-.3.14-.48a.9.9 0 0 0-.35-.75 3.47 3.47 0 0 0-.88-.47l-1.15-.38c-.42-.13-.8-.3-1.15-.52-.36-.21-.65-.5-.89-.85a2.58 2.58 0 0 1-.35-1.41 3.2 3.2 0 0 1 1.19-2.54c.36-.29.77-.5 1.24-.65a5.54 5.54 0 0 1 3.12.04c.53.17 1.02.45 1.45.84l-1.54 1.73a1.6 1.6 0 0 0-.74-.52 2.29 2.29 0 0 0-1.87.07c-.16.09-.28.2-.38.34a.87.87 0 0 0-.14.5c0 .31.11.56.34.72.23.17.52.31.87.43l1.13.36c.4.11.78.28 1.13.5zm11.37-3.73c.49.47.87 1.05 1.14 1.73.27.68.41 1.44.41 2.28 0 .84-.14 1.6-.41 2.28a4.84 4.84 0 0 1-2.88 2.84c-.67.25-1.4.38-2.2.38-.79 0-1.53-.13-2.2-.38a4.95 4.95 0 0 1-2.88-2.84 6.13 6.13 0 0 1-.41-2.28c0-.84.14-1.6.41-2.28a5 5 0 0 1 2.88-2.84 6.27 6.27 0 0 1 2.2-.38c.8 0 1.53.13 2.2.38.67.26 1.25.63 1.74 1.11zm-1 5.36c.15-.41.22-.86.22-1.35 0-.48-.07-.93-.22-1.35a2.96 2.96 0 0 0-1.64-1.77 3.2 3.2 0 0 0-1.3-.25c-.48 0-.91.08-1.3.25a2.96 2.96 0 0 0-1.64 1.77 4.24 4.24 0 0 0 0 2.7 2.96 2.96 0 0 0 1.64 1.77c.39.17.82.25 1.3.25.48 0 .91-.08 1.3-.25a2.96 2.96 0 0 0 1.64-1.77zm9.96-.24v-6.37h2.24v6.46a5.2 5.2 0 0 1-.25 1.71 3.6 3.6 0 0 1-.78 1.36 3.6 3.6 0 0 1-1.34.9 4.9 4.9 0 0 1-1.86.33c-.71 0-1.34-.11-1.87-.33a3.71 3.71 0 0 1-2.2-2.26 5.2 5.2 0 0 1-.33-1.71v-6.46h2.24v6.37a2.42 2.42 0 0 0 .69 1.62c.18.2.4.36.65.47a2.04 2.04 0 0 0 1.64 0c.25-.11.46-.27.64-.47.18-.2.31-.44.41-.72.1-.27.12-.58.12-.9zm11.19-1.28c-.37.52-.92.86-1.64 1l2.59 4.43h-2.69l-2.13-4.27h-1.25v4.27h-2.24V58.24h4.08c.52 0 1.01.06 1.48.17.46.1.87.29 1.22.53.35.24.62.57.83.97.21.41.31.92.31 1.54 0 .73-.19 1.36-.56 1.88zm-1.95-1.23c.12-.16.18-.38.18-.67 0-.27-.05-.48-.16-.64-.1-.15-.24-.28-.4-.36a1.84 1.84 0 0 0-.56-.17 4.44 4.44 0 0 0-.62-.05h-1.61v2.3h1.47c.2 0 .41.04.64.02.22-.01.43-.01.61-.09.18-.07.33-.19.45-.34zm9.53 4.48c.36-.2.65-.48.88-.83l1.87 1.43a3.97 3.97 0 0 1-1.64 1.38c-.66.29-1.34.44-2.04.44-.8 0-1.53-.13-2.2-.38a5.08 5.08 0 0 1-2.88-2.84 6.13 6.13 0 0 1-.41-2.28c0-.84.14-1.6.41-2.28a4.84 4.84 0 0 1 2.88-2.84 6.23 6.23 0 0 1 3.1-.3 4.24 4.24 0 0 1 1.78.73c.28.2.53.44.75.73l-1.72 1.45a2.2 2.2 0 0 0-.81-.64c-.32-.15-.7-.22-1.12-.22a2.7 2.7 0 0 0-2.1.95c-.26.3-.47.66-.62 1.07-.15.42-.22.87-.22 1.35 0 .49.07.94.22 1.35.15.41.35.77.61 1.07.26.3.56.53.91.7.35.17.73.25 1.13.25.46 0 .87-.1 1.22-.29zm5.83-2.09v1.97h5.11v2.3h-7.35V58.24h7.03v2.3h-4.79v1.64h4.47v2.31zm18.46-6.25h.98l-2.96 10.52h-1.16l-2.58-9.21h-.02l-2.58 9.21h-1.16l-2.96-10.52h.98l2.53 9.21h.03l2.57-9.21h1.2l2.57 9.21h.03zm5.17 0h.98l4.28 10.52h-1.06l-1.11-2.96h-5.39l-1.15 2.96h-.99zm-1.92 6.9h4.67l-2.3-5.73zm7.04-5.92v-.98h7.99v.98h-3.51v9.54H354v-9.54zm16.04 8c.24-.2.45-.45.63-.73l.78.6a4.43 4.43 0 0 1-3.78 1.91c-.78 0-1.49-.14-2.13-.41a4.84 4.84 0 0 1-2.74-2.88 6.07 6.07 0 0 1-.39-2.21c0-.8.13-1.53.39-2.2a4.9 4.9 0 0 1 2.74-2.89 5.43 5.43 0 0 1 4.06-.03c.6.25 1.12.67 1.57 1.26l-.77.67c-.32-.5-.72-.86-1.22-1.08a3.5 3.5 0 0 0-1.51-.34 4.05 4.05 0 0 0-4.01 2.79c-.2.56-.3 1.17-.3 1.82 0 .65.1 1.26.3 1.82a4.05 4.05 0 0 0 4.01 2.79 3.7 3.7 0 0 0 2.37-.89zm9.52-8.98h.96v10.52h-.96v-4.93h-5.75v4.93h-.96V58.24h.96v4.6h5.75z"/><path id="b" d="M228.37 55.59l5.9 5.9-8.36 8.37-5.91-5.9zm7.11 4.59l-5.79-5.8 3.38-3.38 5.79 5.8zm2.15 12.23l-5.9-5.9 8.36-8.37 5.91 5.9zm-7.11-4.59l5.79 5.8-3.38 3.38-5.79-5.8z"/></defs><use fill="#393f44" xlink:href="#a" transform="translate(-220 -51)"/><use fill="#c32d7b" xlink:href="#b" transform="translate(-220 -51)"/></svg>