<svg width="154" height="55" viewBox="0 0 154 55" xmlns="http://www.w3.org/2000/svg"><g fill="none" fill-rule="evenodd"><path d="M7.412 35.786l3.346 3.347-3.025 3.026-3.347-3.348 3.026-3.026zM26.938.532l.128.128 3.22 3.22 4.064 4.064-3.347 3.346-4.065-4.064-11.93 11.928-3.345-3.346L26.938.532zM0 27.47l7.412-7.412 3.347 3.348-4.067 4.064 11.93 11.93-3.348 3.346-11.928-11.93L.127 27.6 0 27.47zm43.118 4.065l4.065-4.065-11.93-11.928 3.348-3.347 11.93 11.93 3.22 3.218.126.127-7.41 7.412-3.348-3.347zm-16.18 16.18l11.93-11.93 3.346 3.348L26.938 54.41l-.127-.13-3.218-3.218-4.066-4.065 3.347-3.346 4.065 4.065zm19.527-28.56l-3.347-3.347 3.026-3.026 3.346 3.347-3.025 3.024zM38.6 43.65l3.026 3.026-3.346 3.347-3.026-3.026L38.6 43.65zM18.623 7.944l-3.347 3.347-3.025-3.025 3.347-3.347 3.025 3.026zm4.517 27.842l3.346 3.347-10.89 10.89-3.346-3.347 10.89-10.89zm7.597-.904l-3.347-3.347L38.867 20.06l3.347 3.345-11.477 11.477zm0-15.728l-3.347-3.346 10.89-10.89 3.346 3.347-10.89 10.89zm-7.598.905l3.346 3.346L15.01 34.882l-3.347-3.347L23.14 20.06zm-.267 7.863L34.35 39.4l-3.347 3.346L19.526 31.27l3.347-3.347zm-4.25-4.25l-3.348 3.345-10.89-10.89 3.348-3.346 10.89 10.89zm15.727 0l-3.347 3.345-11.477-11.476 3.347-3.347L34.35 23.672zm4.25 4.25l10.89 10.89-3.346 3.346-10.89-10.89 3.347-3.347z" fill="#FAB72E"/><path d="M68.743 6.392c-.145-.447-.278-.737-.447-.858-.133-.084-.375-.108-.483-.108-.12 0-.193-.012-.193-.11 0-.083.097-.108.266-.108.628 0 1.292.036 1.4.036.11 0 .64-.036 1.342-.036.17 0 .254.036.254.11 0 .096-.097.108-.217.108-.097 0-.218 0-.302.048-.11.048-.133.133-.133.266 0 .157.12.568.266 1.11.204.8 1.33 4.46 1.546 5.137l2.38-6.307c.122-.34.206-.436.302-.436.134 0 .194.182.35.57L77.59 11.9c.254-.81 1.22-4 1.643-5.413.086-.28.122-.532.122-.7 0-.195-.108-.364-.58-.364-.12 0-.205-.037-.205-.11 0-.083.096-.108.278-.108.64 0 1.147.036 1.257.036.084 0 .604-.036 1.002-.036.133 0 .218.025.218.097 0 .084-.06.12-.17.12-.12 0-.29.013-.422.06-.29.11-.423.593-.677 1.282-.556 1.523-1.824 5.365-2.416 7.178-.133.422-.194.567-.35.567-.122 0-.194-.145-.376-.592L74.4 7.854c-.253.617-1.86 4.907-2.38 6.018-.23.495-.29.64-.435.64-.12 0-.17-.133-.278-.447l-2.562-7.673zm18.45-1.353c3.01 0 4.883 1.75 4.883 4.518s-1.934 4.954-5.003 4.954c-3.467 0-4.87-2.598-4.87-4.736 0-2.066 1.366-4.737 4.99-4.737zM95.32 8.71c0-1.836 0-2.175-.024-2.56-.024-.412-.12-.605-.52-.69-.096-.024-.302-.036-.47-.036-.134 0-.207-.024-.207-.11 0-.083.086-.108.267-.108.64 0 1.4.037 1.655.037.41 0 1.328-.037 1.703-.037.76 0 1.57.073 2.223.52.338.23.822.846.822 1.656 0 .893-.375 1.715-1.596 2.706 1.076 1.353 1.91 2.43 2.623 3.177.677.7 1.172.786 1.353.822.133.024.242.036.338.036.097 0 .145.036.145.097 0 .096-.083.12-.228.12h-1.15c-.675 0-.977-.06-1.29-.23-.52-.277-.98-.846-1.657-1.776-.482-.664-1.04-1.485-1.195-1.667-.06-.073-.134-.085-.218-.085l-1.052-.024c-.06 0-.096.025-.096.098v.17c0 1.122 0 2.077.06 2.585.036.35.11.616.472.665.18.024.447.048.592.048.096 0 .145.036.145.097 0 .084-.085.12-.242.12-.7 0-1.594-.036-1.775-.036-.23 0-.99.036-1.475.036-.156 0-.24-.036-.24-.12 0-.06.048-.097.192-.097.18 0 .327-.024.436-.048.24-.05.3-.315.35-.665.06-.508.06-1.463.06-2.574V8.71zm12.473 2.127c0 1.546 0 2.38.255 2.597.205.18.52.266 1.46.266.642 0 1.113-.012 1.415-.34.145-.156.29-.494.314-.724.013-.11.037-.182.133-.182.085 0 .097.06.097.206 0 .133-.085 1.04-.18 1.39-.074.265-.134.325-.762.325-.87 0-1.5-.025-2.042-.037-.545-.024-.98-.036-1.474-.036-.134 0-.4 0-.69.012-.277 0-.59.023-.833.023-.157 0-.242-.036-.242-.12 0-.06.05-.097.195-.097.18 0 .326-.024.435-.05.24-.047.302-.313.35-.663.06-.508.06-1.463.06-2.574V8.71c0-1.836 0-2.175-.024-2.56-.024-.412-.12-.605-.52-.69-.096-.024-.24-.036-.4-.036-.13 0-.203-.024-.203-.11 0-.083.084-.108.265-.108.568 0 1.33.037 1.656.037.29 0 1.172-.037 1.643-.037.17 0 .254.025.254.11 0 .084-.072.108-.217.108-.133 0-.326.012-.47.036-.328.06-.424.266-.448.69-.024.385-.024.724-.024 2.56v2.127zm6.876-2.127c0-1.837 0-2.176-.024-2.562-.025-.41-.12-.604-.52-.688-.097-.024-.3-.036-.47-.036-.133 0-.206-.025-.206-.11 0-.084.084-.107.265-.107.642 0 1.403.035 1.742.035.374 0 1.135-.036 1.86-.036 1.51 0 3.53 0 4.846 1.376.604.628 1.172 1.63 1.172 3.07 0 1.52-.64 2.68-1.317 3.37-.556.568-1.813 1.426-4.048 1.426-.435 0-.93-.037-1.39-.073-.46-.037-.88-.073-1.183-.073-.134 0-.4 0-.69.012-.277 0-.59.023-.833.023-.16 0-.243-.036-.243-.12 0-.06.048-.097.194-.097.18 0 .327-.025.436-.05.24-.047.302-.313.35-.663.06-.508.06-1.462.06-2.574V8.712zM69.82 27.155c0-1.837 0-2.175-.025-2.562-.024-.41-.12-.604-.52-.69-.097-.023-.302-.035-.47-.035-.134 0-.207-.024-.207-.11 0-.084.085-.107.266-.107.64 0 1.402.037 1.656.037.41 0 1.328-.036 1.703-.036.762 0 1.57.073 2.223.52.34.23.823.846.823 1.656 0 .893-.376 1.715-1.597 2.706 1.076 1.353 1.91 2.43 2.622 3.178.677.7 1.172.785 1.354.822.132.024.24.036.337.036.097 0 .144.036.144.097 0 .096-.083.12-.227.12h-1.15c-.675 0-.977-.06-1.29-.23-.52-.277-.98-.845-1.657-1.776-.483-.665-1.04-1.487-1.196-1.668-.06-.073-.133-.084-.217-.084l-1.052-.025c-.06 0-.095.025-.095.097v.17c0 1.123 0 2.078.06 2.585.036.35.11.616.47.664.182.023.448.048.593.048.097 0 .145.036.145.097 0 .084-.084.12-.242.12-.7 0-1.593-.036-1.775-.036-.23 0-.99.035-1.474.035-.156 0-.24-.036-.24-.12 0-.06.048-.097.193-.097.18 0 .327-.024.435-.05.242-.047.302-.313.35-.663.06-.507.06-1.462.06-2.574v-2.125zm10.96 0c0-1.837 0-2.176-.023-2.562-.023-.41-.12-.604-.52-.69-.096-.023-.3-.035-.47-.035-.133 0-.206-.024-.206-.11 0-.083.086-.107.267-.107.326 0 .677.013.98.013.313.012.59.024.76.024.387 0 2.79 0 3.02-.012.23-.024.424-.05.52-.073.06-.012.133-.048.194-.048.06 0 .074.048.074.11 0 .083-.06.228-.097.784-.013.12-.037.653-.06.798-.012.06-.037.133-.122.133-.084 0-.11-.062-.11-.17 0-.085-.01-.29-.07-.436-.085-.217-.206-.362-.81-.434-.206-.025-1.475-.05-1.716-.05-.062 0-.086.037-.086.122v3.057c0 .083.012.132.085.132.264 0 1.654 0 1.932-.025.29-.024.47-.06.58-.18.084-.098.133-.158.193-.158.05 0 .085.023.085.096 0 .072-.05.266-.097.882-.012.24-.048.725-.048.81 0 .097 0 .23-.11.23-.084 0-.108-.05-.108-.11-.012-.12-.012-.278-.048-.435-.06-.24-.23-.422-.677-.47-.23-.025-1.426-.037-1.717-.037-.06 0-.072.048-.072.12v.955c0 .412-.012 1.523 0 1.874.024.834.217 1.015 1.45 1.015.314 0 .822 0 1.136-.146.315-.145.46-.398.543-.894.025-.133.05-.18.133-.18.097 0 .097.095.097.216 0 .278-.097 1.1-.157 1.34-.084.316-.193.316-.652.316-.906 0-1.572-.024-2.09-.037-.52-.024-.895-.036-1.257-.036-.134 0-.4 0-.69.01-.277 0-.59.025-.833.025-.157 0-.242-.036-.242-.12 0-.06.05-.097.194-.097.18 0 .326-.024.435-.048.242-.05.303-.314.35-.665.06-.507.06-1.462.06-2.574v-2.125zm7.512 5.075c0-.665.048-1.39.06-1.583.012-.18.048-.314.145-.314.11 0 .12.108.12.205 0 .157.05.41.11.616.265.894.98 1.22 1.728 1.22 1.087 0 1.62-.737 1.62-1.377 0-.592-.182-1.148-1.185-1.933l-.556-.435c-1.33-1.04-1.79-1.886-1.79-2.865 0-1.33 1.113-2.284 2.793-2.284.785 0 1.292.122 1.607.206.108.025.17.06.17.145 0 .16-.05.51-.05 1.452 0 .266-.036.362-.132.362-.085 0-.12-.072-.12-.217 0-.11-.062-.484-.315-.798-.182-.23-.532-.593-1.318-.593-.895 0-1.438.52-1.438 1.245 0 .555.278.978 1.28 1.74l.34.254c1.46 1.1 1.98 1.933 1.98 3.08 0 .702-.265 1.535-1.135 2.103-.604.386-1.28.494-1.922.494-.7 0-1.244-.084-1.764-.314-.192-.084-.228-.145-.228-.41zm12.406-8.75c3.01 0 4.882 1.753 4.882 4.52 0 2.768-1.933 4.955-5.003 4.955-3.467 0-4.868-2.598-4.868-4.737 0-2.066 1.364-4.737 4.988-4.737zm7.773 3.675c0-1.837 0-2.176-.023-2.562-.024-.41-.12-.604-.52-.69-.096-.023-.302-.035-.47-.035-.133 0-.206-.024-.206-.11 0-.083.085-.107.267-.107.64 0 1.402.037 1.764.037.29 0 1.052-.036 1.487-.036.182 0 .266.025.266.11 0 .084-.073.108-.194.108-.134 0-.206.012-.35.036-.327.06-.424.266-.448.69-.024.385-.024.724-.024 2.56v1.692c0 1.752.35 2.49.942 2.973.544.446 1.1.495 1.51.495.532 0 1.185-.17 1.668-.653.665-.665.7-1.752.7-2.997v-1.51c0-1.837 0-2.176-.023-2.562-.024-.41-.12-.604-.52-.69-.096-.023-.302-.035-.435-.035-.132 0-.205-.024-.205-.11 0-.083.084-.107.253-.107.616 0 1.378.037 1.39.037.145 0 .907-.036 1.378-.036.168 0 .254.025.254.11 0 .084-.073.108-.218.108-.133 0-.205.012-.35.036-.327.06-.424.266-.448.69-.023.385-.023.724-.023 2.56v1.294c0 1.34-.133 2.767-1.147 3.636-.858.738-1.728.87-2.514.87-.64 0-1.8-.036-2.683-.833-.617-.555-1.076-1.45-1.076-3.2v-1.765zm11.957 0c0-1.837 0-2.175-.025-2.562-.024-.41-.12-.604-.52-.69-.096-.023-.3-.035-.47-.035-.133 0-.206-.024-.206-.11 0-.084.085-.107.266-.107.64 0 1.402.037 1.655.037.41 0 1.33-.036 1.704-.036.762 0 1.572.073 2.224.52.34.23.822.846.822 1.656 0 .893-.375 1.715-1.595 2.706 1.076 1.353 1.91 2.43 2.623 3.178.677.7 1.173.785 1.354.822.133.024.24.036.337.036.097 0 .146.036.146.097 0 .096-.085.12-.23.12h-1.148c-.676 0-.978-.06-1.292-.23-.52-.277-.98-.845-1.656-1.776-.483-.665-1.04-1.487-1.196-1.668-.06-.073-.133-.084-.218-.084l-1.05-.025c-.06 0-.098.025-.098.097v.17c0 1.123 0 2.078.06 2.585.037.35.11.616.472.664.18.023.447.048.592.048.096 0 .145.036.145.097 0 .084-.084.12-.24.12-.7 0-1.595-.036-1.777-.036-.23 0-.99.035-1.474.035-.158 0-.243-.036-.243-.12 0-.06.05-.097.194-.097.182 0 .327-.024.436-.05.24-.047.302-.313.35-.663.06-.507.06-1.462.06-2.574v-2.125zm8.69.918c0-.822.254-2.247 1.413-3.31.87-.798 2.02-1.282 3.82-1.282.748 0 1.195.05 1.75.122.46.06.846.17 1.21.206.132.012.18.072.18.145 0 .096-.036.242-.06.664-.025.4-.012 1.063-.037 1.305-.012.182-.036.278-.144.278-.098 0-.122-.096-.122-.265-.013-.375-.17-.798-.47-1.112-.4-.423-1.343-.75-2.455-.75-1.05 0-1.74.267-2.27.75-.883.81-1.112 1.957-1.112 3.13 0 2.875 2.188 4.3 3.806 4.3 1.076 0 1.728-.12 2.212-.676.205-.23.362-.58.41-.798.037-.194.06-.242.157-.242.085 0 .11.085.11.18 0 .146-.146 1.197-.266 1.608-.062.206-.11.266-.315.35-.484.194-1.403.278-2.176.278-1.656 0-3.046-.362-4.145-1.317-1.184-1.04-1.498-2.392-1.498-3.564zm11.996-.918c0-1.837 0-2.176-.024-2.562-.025-.41-.122-.604-.52-.69-.097-.023-.302-.035-.472-.035-.132 0-.205-.024-.205-.11 0-.083.085-.107.266-.107.325 0 .675.013.978.013.314.012.592.024.76.024.387 0 2.792 0 3.022-.012.23-.024.422-.05.52-.073.06-.012.132-.048.193-.048.06 0 .073.048.073.11 0 .083-.06.228-.097.784-.014.12-.038.653-.062.798-.012.06-.036.133-.12.133-.086 0-.11-.062-.11-.17 0-.085-.012-.29-.073-.436-.084-.217-.204-.362-.81-.434-.204-.025-1.473-.05-1.714-.05-.06 0-.084.037-.084.122v3.057c0 .083.012.132.085.132.266 0 1.656 0 1.933-.025.29-.024.472-.06.58-.18.085-.098.134-.158.194-.158.048 0 .085.023.085.096 0 .072-.05.266-.097.882-.012.24-.048.725-.048.81 0 .097 0 .23-.11.23-.084 0-.108-.05-.108-.11-.013-.12-.013-.278-.05-.435-.06-.24-.23-.422-.675-.47-.23-.025-1.426-.037-1.717-.037-.06 0-.072.048-.072.12v.955c0 .412-.012 1.523 0 1.874.024.834.217 1.015 1.45 1.015.314 0 .822 0 1.136-.146.314-.145.46-.398.543-.894.025-.133.05-.18.133-.18.097 0 .097.095.097.216 0 .278-.097 1.1-.157 1.34-.085.316-.193.316-.652.316-.906 0-1.572-.024-2.09-.037-.52-.024-.895-.036-1.258-.036-.133 0-.398 0-.688.01-.278 0-.592.025-.834.025-.157 0-.242-.036-.242-.12 0-.06.05-.097.194-.097.18 0 .326-.024.435-.048.24-.05.302-.314.35-.665.06-.507.06-1.462.06-2.574v-2.125zm7.51 5.075c0-.665.05-1.39.062-1.583.012-.18.048-.314.145-.314.11 0 .12.108.12.205 0 .157.05.41.11.616.265.894.978 1.22 1.727 1.22 1.087 0 1.62-.737 1.62-1.377 0-.592-.182-1.148-1.185-1.933l-.555-.435c-1.33-1.04-1.79-1.886-1.79-2.865 0-1.33 1.112-2.284 2.792-2.284.784 0 1.292.122 1.606.206.11.025.17.06.17.145 0 .16-.05.51-.05 1.452 0 .266-.036.362-.132.362-.084 0-.12-.072-.12-.217 0-.11-.06-.484-.315-.798-.182-.23-.533-.593-1.318-.593-.894 0-1.438.52-1.438 1.245 0 .555.278.978 1.28 1.74l.34.254c1.46 1.1 1.98 1.933 1.98 3.08 0 .702-.265 1.535-1.135 2.103-.605.386-1.282.494-1.922.494-.7 0-1.245-.084-1.765-.314-.192-.084-.23-.145-.23-.41zM69.82 45.597c0-1.837 0-2.175-.026-2.562-.023-.41-.144-.616-.41-.677-.133-.036-.29-.048-.435-.048-.122 0-.195-.024-.195-.12 0-.073.097-.097.29-.097.46 0 1.22.036 1.57.036.303 0 1.016-.037 1.475-.037.157 0 .254.024.254.096 0 .096-.073.12-.193.12-.12 0-.217.012-.362.036-.326.06-.423.267-.447.69-.023.386-.023.724-.023 2.56v2.127c0 1.173 0 2.127.048 2.647.037.326.12.543.484.592.168.024.434.048.615.048.133 0 .194.036.194.097 0 .084-.098.12-.232.12-.797 0-1.558-.036-1.884-.036-.278 0-1.04.037-1.523.037-.156 0-.24-.036-.24-.12 0-.06.048-.097.193-.097.18 0 .326-.024.435-.048.242-.05.314-.254.35-.605.06-.507.06-1.46.06-2.634v-2.126zm7.224 3.987c.024.943.182 1.257.423 1.342.206.072.435.084.628.084.133 0 .206.024.206.097 0 .097-.108.12-.278.12-.784 0-1.268-.036-1.498-.036-.108 0-.676.038-1.304.038-.158 0-.266-.013-.266-.12 0-.074.072-.098.193-.098.157 0 .375-.012.544-.06.315-.097.363-.447.375-1.5l.11-7.116c0-.24.035-.41.156-.41.135 0 .243.157.45.374.144.157 1.98 2.09 3.744 3.843.82.822 2.453 2.562 2.658 2.755h.06l-.12-5.425c-.012-.737-.12-.966-.41-1.087-.183-.073-.472-.073-.64-.073-.146 0-.194-.036-.194-.11 0-.096.133-.107.314-.107.628 0 1.208.036 1.462.036.132 0 .592-.037 1.184-.037.156 0 .278.01.278.108 0 .074-.073.11-.218.11-.12 0-.218 0-.363.036-.337.097-.434.35-.447 1.027l-.132 7.625c0 .266-.05.375-.157.375-.134 0-.28-.133-.412-.266-.762-.725-2.308-2.308-3.565-3.553-1.317-1.305-2.658-2.78-2.876-3.008h-.036l.134 5.038zm10.37 1.088c0-.665.048-1.39.06-1.583.012-.182.048-.315.145-.315.108 0 .12.11.12.205 0 .157.048.41.108.616.266.894.98 1.22 1.728 1.22 1.087 0 1.62-.737 1.62-1.376 0-.593-.182-1.15-1.185-1.934l-.555-.435c-1.33-1.038-1.788-1.884-1.788-2.863 0-1.33 1.112-2.284 2.79-2.284.787 0 1.294.12 1.61.206.107.023.168.06.168.144 0 .157-.05.508-.05 1.45 0 .266-.035.362-.132.362-.084 0-.12-.072-.12-.217 0-.11-.06-.485-.314-.8-.183-.228-.534-.59-1.32-.59-.893 0-1.437.52-1.437 1.244 0 .556.278.978 1.28 1.74l.34.254c1.46 1.1 1.98 1.933 1.98 3.08 0 .702-.265 1.535-1.135 2.103-.604.388-1.28.496-1.92.496-.7 0-1.246-.084-1.765-.314-.193-.084-.23-.144-.23-.41zm10.56-7.903l-1.802.047c-.7.025-.99.085-1.17.35-.122.182-.183.327-.207.424-.024.098-.06.146-.133.146-.084 0-.108-.06-.108-.193 0-.194.228-1.293.253-1.39.036-.157.073-.23.145-.23.097 0 .218.12.52.146.35.035.81.06 1.208.06h4.785c.387 0 .653-.037.834-.06.18-.038.276-.062.325-.062.085 0 .096.072.096.254 0 .254-.035 1.087-.035 1.402-.012.12-.036.193-.11.193-.095 0-.12-.06-.132-.242l-.01-.132c-.026-.315-.352-.653-1.427-.678l-1.523-.036v4.954c0 1.11 0 2.066.06 2.585.037.337.11.604.472.652.17.024.435.048.616.048.134 0 .194.037.194.097 0 .085-.096.12-.23.12-.796 0-1.558-.035-1.896-.035-.278 0-1.04.036-1.523.036-.156 0-.24-.036-.24-.12 0-.06.047-.098.192-.098.18 0 .326-.024.435-.048.242-.048.314-.315.35-.665.06-.507.06-1.462.06-2.573V42.77zm8.094 2.827c0-1.837 0-2.175-.024-2.562-.025-.41-.145-.616-.41-.677-.134-.036-.29-.048-.436-.048-.12 0-.194-.024-.194-.12 0-.073.097-.097.29-.097.46 0 1.22.036 1.572.036.3 0 1.014-.037 1.474-.037.156 0 .253.024.253.096 0 .096-.073.12-.193.12-.12 0-.217.012-.363.036-.326.06-.423.267-.447.69-.024.386-.024.724-.024 2.56v2.127c0 1.173 0 2.127.048 2.647.037.326.12.543.484.592.17.024.435.048.616.048.133 0 .194.036.194.097 0 .084-.097.12-.23.12-.798 0-1.56-.036-1.885-.036-.278 0-1.04.037-1.523.037-.157 0-.24-.036-.24-.12 0-.06.047-.097.192-.097.18 0 .327-.024.435-.048.242-.05.314-.254.35-.605.06-.507.06-1.46.06-2.634v-2.126zm8.1-2.828l-1.8.047c-.7.025-.99.085-1.172.35-.12.182-.182.327-.206.424-.024.098-.06.146-.133.146-.084 0-.108-.06-.108-.193 0-.194.228-1.293.252-1.39.037-.157.073-.23.145-.23.097 0 .218.12.52.146.35.035.81.06 1.208.06h4.785c.387 0 .653-.037.834-.06.18-.038.278-.062.326-.062.085 0 .097.072.097.254 0 .254-.036 1.087-.036 1.402-.012.12-.036.193-.108.193-.097 0-.12-.06-.133-.242l-.013-.132c-.024-.315-.35-.653-1.426-.678l-1.52-.036v4.954c0 1.11 0 2.066.06 2.585.035.337.108.604.47.652.17.024.435.048.617.048.133 0 .192.037.192.097 0 .085-.097.12-.23.12-.797 0-1.558-.035-1.897-.035-.278 0-1.04.036-1.523.036-.156 0-.24-.036-.24-.12 0-.06.047-.098.192-.098.182 0 .326-.024.435-.048.242-.048.314-.315.35-.665.06-.507.06-1.462.06-2.573V42.77zm7.92 2.827c0-1.837 0-2.175-.025-2.562-.024-.41-.12-.604-.52-.69-.096-.023-.302-.035-.47-.035-.133 0-.206-.024-.206-.108 0-.085.084-.11.266-.11.64 0 1.402.037 1.764.037.29 0 1.05-.037 1.486-.037.18 0 .266.024.266.108 0 .086-.074.11-.195.11-.133 0-.205.012-.35.036-.326.06-.423.267-.447.69-.024.386-.024.724-.024 2.56v1.692c0 1.752.35 2.49.942 2.973.544.448 1.1.497 1.51.497.532 0 1.185-.17 1.668-.653.665-.664.7-1.752.7-2.997v-1.51c0-1.837 0-2.175-.023-2.562-.023-.41-.12-.604-.518-.69-.097-.023-.303-.035-.436-.035-.132 0-.205-.024-.205-.108 0-.085.085-.11.254-.11.616 0 1.378.037 1.39.037.145 0 .907-.037 1.378-.037.17 0 .254.024.254.108 0 .086-.073.11-.218.11-.133 0-.205.012-.35.036-.327.06-.423.267-.448.69-.023.386-.023.724-.023 2.56v1.294c0 1.34-.134 2.767-1.148 3.637-.86.737-1.73.87-2.515.87-.64 0-1.8-.037-2.682-.834-.617-.556-1.075-1.45-1.075-3.202v-1.763zm13.765-2.828l-1.8.047c-.702.025-.99.085-1.172.35-.12.182-.18.327-.205.424-.024.098-.06.146-.133.146-.084 0-.108-.06-.108-.193 0-.194.228-1.293.253-1.39.036-.157.073-.23.145-.23.097 0 .218.12.52.146.35.035.81.06 1.208.06h4.785c.387 0 .653-.037.834-.06.18-.038.277-.062.325-.062.085 0 .096.072.096.254 0 .254-.035 1.087-.035 1.402-.012.12-.036.193-.108.193-.097 0-.12-.06-.133-.242l-.012-.132c-.025-.315-.35-.653-1.426-.678l-1.522-.036v4.954c0 1.11 0 2.066.06 2.585.036.337.11.604.47.652.17.024.436.048.617.048.134 0 .194.037.194.097 0 .085-.096.12-.23.12-.796 0-1.558-.035-1.896-.035-.278 0-1.04.036-1.523.036-.156 0-.24-.036-.24-.12 0-.06.047-.098.192-.098.18 0 .326-.024.435-.048.242-.048.314-.315.35-.665.06-.507.06-1.462.06-2.573V42.77zm8.175 2.827c0-1.837 0-2.175-.024-2.562-.024-.41-.12-.604-.52-.69-.096-.023-.302-.035-.47-.035-.133 0-.206-.024-.206-.108 0-.085.085-.11.266-.11.326 0 .676.013.978.013.314.012.592.024.762.024.386 0 2.79 0 3.02-.013.23-.024.423-.05.52-.073.06-.012.133-.048.194-.048.06 0 .072.048.072.11 0 .083-.06.23-.097.784-.012.12-.036.653-.06.798-.012.06-.037.133-.12.133-.086 0-.11-.06-.11-.17 0-.083-.012-.29-.073-.434-.084-.217-.204-.362-.81-.434-.205-.025-1.473-.05-1.714-.05-.06 0-.086.037-.086.122v3.057c0 .085.013.134.086.134.265 0 1.655 0 1.932-.024.29-.025.472-.06.58-.18.085-.098.133-.16.194-.16.048 0 .084.026.084.098 0 .072-.048.266-.097.882-.012.242-.05.725-.05.81 0 .097 0 .23-.107.23-.085 0-.11-.05-.11-.11-.01-.12-.01-.278-.048-.434-.06-.242-.23-.423-.676-.472-.23-.024-1.426-.036-1.717-.036-.06 0-.073.048-.073.12v.955c0 .41-.01 1.523 0 1.873.025.834.218 1.015 1.45 1.015.315 0 .823 0 1.137-.144.314-.145.46-.398.543-.894.024-.132.05-.18.133-.18.097 0 .097.096.097.216 0 .278-.097 1.1-.157 1.34-.085.316-.194.316-.652.316-.906 0-1.57-.024-2.09-.037-.52-.024-.894-.036-1.256-.036-.134 0-.4 0-.69.013-.277 0-.59.024-.834.024-.156 0-.24-.036-.24-.12 0-.06.048-.097.192-.097.18 0 .327-.024.436-.048.24-.05.3-.314.35-.665.06-.507.06-1.462.06-2.574v-2.126zM86.844 5.62c-1.39 0-2.973.773-2.973 3.78 0 2.514 1.39 4.508 3.71 4.508.846 0 2.804-.41 2.804-3.903 0-2.706-1.56-4.386-3.54-4.386zm9.9 4.047c0 .133.024.182.11.218.253.084.615.12.917.12.484 0 .64-.048.86-.205.36-.266.712-.82.712-1.813 0-1.715-1.135-2.21-1.85-2.21-.3 0-.52.01-.64.048-.084.024-.108.072-.108.17v3.672zm19.432.375c0 1.28.012 2.21.025 2.44.013.302.037.786.134.92.156.228.628.482 1.582.482 1.233 0 2.055-.24 2.78-.87.773-.665 1.015-1.764 1.015-3.01 0-1.533-.64-2.524-1.16-3.02-1.11-1.063-2.488-1.208-3.43-1.208-.242 0-.69.036-.786.085-.11.05-.146.11-.146.242-.012.41-.012 1.463-.012 2.417v1.522zM71.246 28.11c0 .132.023.18.107.217.254.084.616.12.918.12.485 0 .642-.048.86-.205.362-.266.713-.822.713-1.812 0-1.716-1.136-2.212-1.85-2.212-.3 0-.52.012-.64.05-.084.023-.108.07-.108.168v3.673zm29.103-4.05c-1.39 0-2.974.775-2.974 3.783 0 2.514 1.39 4.507 3.71 4.507.845 0 2.803-.41 2.803-3.902 0-2.707-1.56-4.387-3.54-4.387zm21.502 4.05c0 .132.025.18.11.217.253.084.615.12.917.12.483 0 .64-.048.858-.205.362-.266.712-.822.712-1.812 0-1.716-1.135-2.212-1.848-2.212-.302 0-.52.012-.64.05-.085.023-.11.07-.11.168v3.673z" fill="#FFF"/></g></svg>