<svg xmlns="http://www.w3.org/2000/svg" xmlns:xlink="http://www.w3.org/1999/xlink" width="194" height="32" viewBox="0 0 194 32"><defs><path id="a" d="M269.73 30.3a3.19 3.19 0 0 1-2.03 1.18l3.2 5.24h-3.32l-2.63-5.05h-1.19v5.05H261V24.28h4.68c.64 0 1.25.08 1.82.2.57.12 1.08.34 1.51.63.43.29.77.67 1.03 1.15.25.49.38 1.09.38 1.81 0 .88-.23 1.62-.69 2.23zm-2.41-1.46c.15-.19.22-.45.22-.79 0-.31-.06-.56-.19-.75-.13-.18-.3-.33-.5-.43-.2-.1-.43-.17-.69-.2a4.96 4.96 0 0 0-.76-.06h-1.64v2.72h1.46c.25 0 .51.05.79.03.28-.02.53-.02.75-.11.23-.09.42-.22.56-.41zm7.5 2.83V34h5.92v2.72h-8.69V24.28h8.3V27h-5.53v1.95h5.53v2.72zm14.35-1.5c.43.25.79.6 1.08 1.03.28.43.42 1.01.42 1.73a3.62 3.62 0 0 1-1.44 3.07c-.45.34-.96.59-1.55.76a6.95 6.95 0 0 1-4.12-.13 5.68 5.68 0 0 1-1.96-1.19l1.97-2.13c.29.38.64.66 1.08.87a3.15 3.15 0 0 0 2.02.23c.23-.06.44-.14.62-.24.19-.11.33-.24.45-.4.11-.17.16-.36.16-.58 0-.37-.14-.67-.43-.88-.29-.22-.65-.4-1.09-.55l-1.42-.46a6.03 6.03 0 0 1-1.42-.61 2.86 2.86 0 0 1-1.53-2.67 3.64 3.64 0 0 1 1.47-3.01c.44-.33.95-.59 1.53-.76a7.08 7.08 0 0 1 3.85.05c.67.2 1.26.53 1.8.99l-1.9 2.05a1.96 1.96 0 0 0-.92-.62 3.16 3.16 0 0 0-1.71-.13c-.21.04-.42.12-.6.21-.19.1-.35.23-.47.4-.11.16-.17.36-.17.59a1 1 0 0 0 .42.86c.29.2.64.36 1.08.5.43.14.89.28 1.39.42.5.14.96.34 1.39.6zm14.05-4.41a5.7 5.7 0 0 1 1.41 2.05c.34.8.51 1.7.51 2.69s-.17 1.89-.51 2.69a5.7 5.7 0 0 1-1.41 2.05c-.6.57-1.32 1-2.15 1.31-.82.3-1.73.45-2.71.45s-1.89-.15-2.72-.45a6.2 6.2 0 0 1-3.56-3.36 7 7 0 0 1-.5-2.69 7 7 0 0 1 .5-2.69 6.2 6.2 0 0 1 3.56-3.36c.83-.3 1.74-.45 2.72-.45.98 0 1.89.15 2.71.45.83.31 1.55.74 2.15 1.31zm-1.23 6.34c.18-.48.27-1.02.27-1.6 0-.57-.09-1.1-.27-1.59a3.68 3.68 0 0 0-.79-1.27 3.7 3.7 0 0 0-1.24-.83 4.26 4.26 0 0 0-1.6-.29c-.59 0-1.13.1-1.61.29a3.66 3.66 0 0 0-2.02 2.1 4.58 4.58 0 0 0 0 3.19 3.66 3.66 0 0 0 2.02 2.09c.48.2 1.02.29 1.61.29.59 0 1.13-.09 1.6-.29.48-.2.9-.48 1.24-.83.34-.36.61-.78.79-1.26zm12.31-.29v-7.53h2.76v7.64c0 .73-.07 1.41-.3 2.02a4.3 4.3 0 0 1-.96 1.61c-.45.45-1 .81-1.67 1.07-.66.25-1.43.38-2.29.38a6.6 6.6 0 0 1-2.32-.38 4.75 4.75 0 0 1-1.67-1.07 4.34 4.34 0 0 1-1.04-1.61 5.72 5.72 0 0 1-.41-2.02v-7.64h2.77v7.53a2.68 2.68 0 0 0 .85 1.91 2.43 2.43 0 0 0 1.82.76 2.4 2.4 0 0 0 2.31-1.6c.12-.33.15-.69.15-1.07zm13.83-1.51a3.21 3.21 0 0 1-2.03 1.18l3.2 5.24h-3.32l-2.63-5.05h-1.55v5.05h-2.76V24.28h5.04c.64 0 1.24.08 1.82.2.57.12 1.07.34 1.51.63.43.29.77.67 1.03 1.15.25.49.38 1.09.38 1.81 0 .88-.23 1.62-.69 2.23zm-2.41-1.46c.15-.19.22-.45.22-.79 0-.31-.06-.56-.19-.75-.13-.18-.3-.33-.5-.43-.2-.1-.43-.17-.69-.2a5.1 5.1 0 0 0-.77-.06h-1.99v2.72h1.82c.25 0 .51.05.79.03.27-.02.53-.02.75-.11.23-.09.41-.22.56-.41zm11.78 5.29c.44-.23.8-.55 1.08-.97l2.31 1.69a4.82 4.82 0 0 1-2.03 1.63c-.81.35-1.65.52-2.52.52a7.9 7.9 0 0 1-2.71-.45 5.96 5.96 0 0 1-3.56-3.36c-.34-.8-.51-1.7-.51-2.69s.17-1.89.51-2.69a5.96 5.96 0 0 1 3.56-3.36 7.9 7.9 0 0 1 3.82-.35 5.63 5.63 0 0 1 2.21.86c.35.23.65.52.93.86l-2.13 1.71a2.68 2.68 0 0 0-1.01-.75 3.25 3.25 0 0 0-1.37-.26c-.52 0-1.01.1-1.45.29-.44.2-.83.48-1.15.83-.33.36-.58.78-.77 1.27a4.58 4.58 0 0 0-.27 1.59 4.2 4.2 0 0 0 1.03 2.86 3.24 3.24 0 0 0 2.52 1.12c.57 0 1.07-.11 1.51-.35zm7.2-2.46V34h6.32v2.72h-9.08V24.28h8.68V27h-5.92v1.95h5.53v2.72zm22.81-7.39h1.21l-3.66 12.44h-1.43l-3.18-10.88h-.04l-3.17 10.88h-1.44l-3.66-12.44h1.21l3.12 10.88h.04l3.17-10.88h1.5l3.17 10.88h.04zm6.39 0h1.21l5.29 12.44h-1.31l-1.37-3.5h-6.66l-1.42 3.5h-1.22zm-2.38 8.16h5.77l-2.84-6.78zm8.71-6.99v-1.17h9.87v1.17h-4.34v11.27h-1.19V25.45zm19.82 9.44c.29-.23.55-.52.78-.86l.96.72c-.61.8-1.3 1.38-2.1 1.73a7.05 7.05 0 0 1-5.21.04 5.9 5.9 0 0 1-3.38-3.41 6.96 6.96 0 0 1-.48-2.61c0-.94.16-1.81.48-2.6a6.3 6.3 0 0 1 1.33-2.06 6.2 6.2 0 0 1 2.05-1.35 6.86 6.86 0 0 1 5.03-.04c.74.29 1.38.79 1.94 1.49l-.96.79a3.43 3.43 0 0 0-1.5-1.28 4.56 4.56 0 0 0-1.87-.4c-.82 0-1.55.14-2.21.42a4.88 4.88 0 0 0-2.74 2.88 6.04 6.04 0 0 0-.38 2.15c0 .77.13 1.49.38 2.15a4.88 4.88 0 0 0 2.74 2.88 5.58 5.58 0 0 0 3.2.31 4.65 4.65 0 0 0 1.94-.95zm11.77-10.61H413v12.44h-1.18v-5.83h-7.11v5.83h-1.19V24.28h1.19v5.44h7.11z"/><path id="b" d="M229.3 21L219 31.3l7.27 7.27 10.3-10.3L229.3 21"/><path id="c" d="M238.13 26.29l4.16-4.16-7.13-7.13-4.16 4.16 7.13 7.13"/><path id="d" d="M240.27 41.57l10.3-10.3L243.3 24 233 34.3l7.27 7.27"/><path id="e" d="M232.16 36L228 40.16l7.13 7.13 4.16-4.16-7.13-7.13"/></defs><g transform="translate(-219 -15)"><use fill="#fff" xlink:href="#a"/></g><g transform="translate(-219 -15)"><use fill="#fff" xlink:href="#b"/></g><g transform="translate(-219 -15)"><use fill="#fff" xlink:href="#c"/></g><g transform="translate(-219 -15)"><use fill="#fff" xlink:href="#d"/></g><g transform="translate(-219 -15)"><use fill="#fff" xlink:href="#e"/></g></svg>